# xmcd
#
# Track frame offsets: 
#        150
#        15903
#        49731
#        69655
#        87231
#        100283
#
# Disc length: 1647 seconds
#
# Revision: 0
# Processed by: cddbd v1.5.2PL0 Copyright (c) Steve Scherf et al.
# Submitted via: ExactAudioCopy v1.2
#
DISCID=42066d06
DTITLE=Tony Joe White - Tony Joe White Live and Kickin'
DYEAR=2016
DGENRE=Blues
TTITLE0=Baby Please Don't Go (Live)
TTITLE1=I Want You (Live)
TTITLE2=Roosevelt and Ira Lee (Live)
TTITLE3=Hard To Handle (Live)
TTITLE4=Baby What You Want Me To Do (Live)
TTITLE5=When You Touch Me (Live)
EXTD=
EXTT0=
EXTT1=
EXTT2=
EXTT3=
EXTT4=
EXTT5=
PLAYORDER=
